<svg width="40" height="40" viewBox="0 0 40 40" fill="none" xmlns="http://www.w3.org/2000/svg">
<path d="M24.2266 19.8857C24.2347 19.9431 24.2347 20.0014 24.2266 20.0588C24.2486 20.0032 24.2486 19.9413 24.2266 19.8857Z" fill="#989898"/>
<path d="M20.0106 10.4897C8.10531 10.4897 7.89722 11.5672 7.89722 19.9803C7.89722 28.3934 8.10531 29.4709 20.0106 29.4709C31.9159 29.4709 32.1295 28.3879 32.1295 19.9803C32.1295 11.5728 31.9159 10.4897 20.0106 10.4897ZM23.8713 20.6223L18.3951 23.3132C18.2944 23.3638 18.1826 23.3872 18.0704 23.3812C17.9583 23.3752 17.8495 23.34 17.7545 23.279C17.6595 23.2179 17.5814 23.1331 17.5277 23.0326C17.474 22.932 17.4465 22.8191 17.4477 22.7047V17.4402C17.4474 17.3272 17.4751 17.216 17.5282 17.1169C17.5813 17.0177 17.6582 16.9339 17.7516 16.8732C17.8451 16.8125 17.9521 16.7768 18.0627 16.7696C18.1733 16.7623 18.2839 16.7837 18.3842 16.8317L23.8604 19.3997C23.9564 19.4431 24.0403 19.5102 24.1044 19.595C24.1684 19.6799 24.2107 19.7797 24.2273 19.8854C24.2489 19.941 24.2489 20.0029 24.2273 20.0585C24.2235 20.1765 24.1884 20.2912 24.1257 20.3905C24.063 20.4898 23.9751 20.5699 23.8713 20.6223Z" fill="#989898"/>
<path d="M31.237 1.1167H8.00139C4.18758 1.1167 1.09589 4.26851 1.09589 8.15648V31.8438C1.09589 35.7318 4.18758 38.8836 8.00139 38.8836H31.237C35.0508 38.8836 38.1425 35.7318 38.1425 31.8438V8.15648C38.1425 4.26851 35.0508 1.1167 31.237 1.1167Z" stroke="#989898" stroke-width="2" stroke-linecap="round" stroke-linejoin="round"/>
</svg>
