<svg width="40" height="40" viewBox="0 0 40 40" fill="none" xmlns="http://www.w3.org/2000/svg">
<path d="M7.94622 14.5152C8.08454 13.4141 8.41661 12.3475 8.92646 11.3666C10.2517 9.16142 12.3272 8.31843 14.7148 8.25702C17.9732 8.17328 21.2425 8.17886 24.5008 8.25702C26.6913 8.31285 28.6846 9.05534 30.0318 11.0093C30.8443 12.2487 31.2665 13.7114 31.242 15.2019C31.2913 18.3952 31.3132 21.5941 31.242 24.7874C31.1818 27.3554 30.3056 29.5885 27.9289 30.8725C26.8469 31.4541 25.6418 31.7569 24.4187 31.7546C21.1987 31.7881 17.9786 31.8216 14.7641 31.7546C12.3491 31.6987 10.2517 30.8669 8.91004 28.6339C8.39947 27.6552 8.06734 26.5903 7.92979 25.4908L7.94622 14.5152ZM19.627 10.5068C18.0279 10.5068 16.4289 10.4789 14.8298 10.5068C12.3327 10.6073 10.7993 11.7797 10.3448 13.9569C10.2395 14.4241 10.1826 14.9013 10.175 15.3805C10.175 18.4678 10.1148 21.555 10.175 24.6366C10.2353 27.7183 11.7577 29.3484 14.6655 29.4601C17.9513 29.5829 21.237 29.5717 24.5227 29.4601C26.9432 29.3819 28.3561 28.1928 28.8434 26.0602C28.9364 25.6798 28.9914 25.2907 29.0077 24.899C29.0077 21.3819 29.2158 17.8593 28.9037 14.3477C28.8471 13.3903 28.4529 12.4861 27.7936 11.8017C27.1344 11.1174 26.2547 10.6991 25.3168 10.6241C23.422 10.3729 21.5218 10.5571 19.627 10.518V10.5068Z" fill="#989898"/>
<path d="M25.6385 20.0472C25.6385 21.2618 25.2852 22.4491 24.6233 23.4589C23.9614 24.4688 23.0206 25.2559 21.9199 25.7207C20.8192 26.1855 19.608 26.3071 18.4395 26.0702C17.271 25.8332 16.1976 25.2484 15.3552 24.3895C14.5127 23.5307 13.939 22.4365 13.7066 21.2453C13.4741 20.054 13.5934 18.8193 14.0494 17.6972C14.5053 16.5751 15.2774 15.616 16.268 14.9412C17.2586 14.2664 18.4233 13.9063 19.6147 13.9062C21.2092 13.9165 22.7355 14.5668 23.863 15.7162C24.9906 16.8657 25.6284 18.4217 25.6385 20.0472ZM23.3987 20.0137C23.4139 19.2377 23.2021 18.4746 22.7903 17.8217C22.3784 17.1689 21.7852 16.6559 21.0862 16.3481C20.3873 16.0403 19.6142 15.9516 18.8656 16.0935C18.1171 16.2353 17.4269 16.6012 16.8831 17.1445C16.3393 17.6878 15.9665 18.3839 15.8123 19.144C15.658 19.9041 15.7293 20.6938 16.0171 21.4124C16.3048 22.1311 16.796 22.7461 17.4279 23.179C18.0599 23.612 18.804 23.8433 19.5654 23.8434C20.5715 23.8524 21.54 23.4543 22.2585 22.7363C22.9771 22.0184 23.3872 21.0393 23.3987 20.0137Z" fill="#989898"/>
<path d="M25.803 12.2818C26.1898 12.2774 26.5627 12.4294 26.8398 12.7046C27.1169 12.9798 27.2758 13.3557 27.2815 13.7501C27.2587 14.1318 27.0938 14.4903 26.8206 14.7523C26.5473 15.0144 26.1863 15.1603 25.8112 15.1603C25.436 15.1603 25.075 15.0144 24.8018 14.7523C24.5285 14.4903 24.3637 14.1318 24.3408 13.7501C24.3423 13.5558 24.3812 13.3637 24.4555 13.1848C24.5297 13.0058 24.6378 12.8436 24.7736 12.7072C24.9094 12.5709 25.0702 12.4632 25.2468 12.3902C25.4234 12.3172 25.6124 12.2804 25.803 12.2818Z" fill="#989898"/>
<path d="M31.237 1.1167H8.00139C4.18758 1.1167 1.09589 4.26851 1.09589 8.15648V31.8438C1.09589 35.7318 4.18758 38.8836 8.00139 38.8836H31.237C35.0508 38.8836 38.1425 35.7318 38.1425 31.8438V8.15648C38.1425 4.26851 35.0508 1.1167 31.237 1.1167Z" stroke="#989898" stroke-width="2" stroke-linecap="round" stroke-linejoin="round"/>
</svg>
