<svg width="40" height="40" viewBox="0 0 40 40" fill="none" xmlns="http://www.w3.org/2000/svg">
<path d="M31.8443 1.1167H8.15696C4.269 1.1167 1.11719 4.26851 1.11719 8.15648V31.8438C1.11719 35.7318 4.269 38.8836 8.15696 38.8836H31.8443C35.7323 38.8836 38.8841 35.7318 38.8841 31.8438V8.15648C38.8841 4.26851 35.7323 1.1167 31.8443 1.1167Z" stroke="#989898" stroke-width="2" stroke-linecap="round" stroke-linejoin="round"/>
<path d="M24.2066 11.841H26.3112V7.25757H23.1403C18.6741 7.25757 16.5248 9.9261 16.5248 13.7279V17.3343H13.0077V21.6832H16.5248V32.7426H21.7725V21.6832H25.2896L26.2833 17.3343H21.7725V14.3643C21.7725 13.1473 22.4592 11.841 24.2066 11.841Z" fill="#989898"/>
</svg>
