<svg width="40" height="40" viewBox="0 0 40 40" fill="none" xmlns="http://www.w3.org/2000/svg">
<path d="M14.704 12.5835C14.7211 12.8666 14.6779 13.15 14.5774 13.4152C14.4768 13.6803 14.3211 13.9211 14.1206 14.1216C13.9201 14.3221 13.6793 14.4778 13.4142 14.5783C13.1491 14.6789 12.8656 14.722 12.5826 14.7049C12.3103 14.7154 12.0388 14.6712 11.7839 14.5749C11.5291 14.4786 11.2962 14.3321 11.0989 14.1442C10.9016 13.9563 10.744 13.7308 10.6355 13.4809C10.5269 13.2311 10.4695 12.962 10.4667 12.6896C10.4547 12.403 10.5004 12.1169 10.601 11.8482C10.7016 11.5796 10.8551 11.3339 11.0524 11.1256C11.2497 10.9174 11.4868 10.7509 11.7497 10.636C12.0125 10.521 12.2957 10.46 12.5826 10.4565C12.8639 10.448 13.1441 10.4972 13.4057 10.6011C13.6673 10.7051 13.9049 10.8615 14.1036 11.0608C14.3024 11.2602 14.4583 11.4981 14.5615 11.76C14.6648 12.0219 14.7133 12.3022 14.704 12.5835Z" fill="#989898"/>
<path d="M14.7041 15.7598H10.4668V29.5323H14.7041V15.7598Z" fill="#989898"/>
<path d="M24.8712 15.9719C24.0746 15.9505 23.286 16.1345 22.581 16.506C21.8761 16.8775 21.2786 17.4241 20.846 18.0933H20.74L20.5278 16.2901H16.7148C16.7148 17.4569 16.8209 18.8358 16.8209 20.4213V29.5322H21.0582V22.0124C21.0353 21.6554 21.0711 21.297 21.1643 20.9516C21.4825 20.2091 22.0128 19.2768 23.1796 19.2768C24.659 19.2768 25.2954 20.5441 25.2954 22.2412V29.5322H29.5327V21.7165C29.5327 17.7751 27.5229 15.9719 24.8712 15.9719Z" fill="#989898"/>
<path d="M31.8443 1.1167H8.15696C4.269 1.1167 1.11719 4.26851 1.11719 8.15648V31.8438C1.11719 35.7318 4.269 38.8836 8.15696 38.8836H31.8443C35.7323 38.8836 38.8841 35.7318 38.8841 31.8438V8.15648C38.8841 4.26851 35.7323 1.1167 31.8443 1.1167Z" stroke="#989898" stroke-width="2" stroke-linecap="round" stroke-linejoin="round"/>
</svg>
