<svg width="32" height="32" viewBox="0 0 32 32" fill="none" xmlns="http://www.w3.org/2000/svg">
<rect width="32" height="32" rx="6" fill="#7360F2"/>
<path d="M15.7436 6.66675C14.0564 6.66675 9.88268 6.83673 7.66261 8.87658C6.06417 10.3215 5.44255 12.5313 5.35375 15.1661C5.17614 19.3308 6.15297 21.9656 7.75142 23.3254C8.10663 23.5804 8.99465 24.2604 10.6819 24.7703V26.8952C10.6819 26.8952 10.6819 27.7451 11.2147 27.9151C11.3035 27.9151 11.3923 28.0001 11.4811 28.0001C12.0139 28.0001 12.4579 27.4051 13.0796 26.8102C13.6124 26.2152 14.0564 25.7903 14.3228 25.3653H16.2765C17.9637 25.3653 22.1374 25.1953 24.3575 23.1555C25.9559 21.6256 26.5775 19.4158 26.5775 16.611C26.6663 16.186 26.6663 15.676 26.6663 15.1661C26.5775 12.0213 25.6007 9.8965 24.2687 8.70659C23.7359 8.28162 21.427 6.66675 16.4541 6.66675H15.7436ZM15.566 8.28162H16.3653C21.0718 8.28162 22.8478 9.72651 23.0254 9.8965C24.0911 10.7464 24.7127 12.6163 24.8015 15.0811V15.4211C24.8903 15.931 24.8903 16.356 24.8903 16.611C24.8015 19.1608 24.2687 20.8606 23.203 21.9656C21.3382 23.5804 17.4309 23.6654 16.3653 23.6654H14.678L13.2572 25.1953L12.3691 26.1302L12.1915 26.3852C12.0139 26.5552 11.7475 26.8952 11.5699 26.9802V23.1555C9.79387 22.7305 9.08345 22.1355 8.90585 21.9656C7.66261 20.9456 6.95219 18.4808 7.1298 15.1661V14.3162C7.3074 12.2763 7.84022 10.9164 8.72824 9.98149C10.5931 8.36662 14.5004 8.28162 15.566 8.28162ZM15.4772 10.1515C15.0332 10.1515 15.0332 10.7464 15.4772 10.7464C18.7629 10.7464 21.6046 12.8713 21.6046 16.866C21.6046 17.2909 22.2262 17.2909 22.2262 16.866C22.2262 12.5313 19.2069 10.0665 15.4772 10.1515ZM11.958 10.9377C11.7568 10.9146 11.5541 10.9677 11.3932 11.0856C10.5052 11.5105 9.61627 12.3622 9.88268 13.2971C9.88268 13.2971 10.0603 14.0612 11.0371 15.676C11.5699 16.441 12.0139 17.1209 12.4579 17.6309C12.902 18.2258 13.6124 18.9058 14.3228 19.4158C15.7436 20.5207 17.9637 21.6256 18.9405 21.8806C19.8286 22.1355 20.8054 21.2856 21.2494 20.4357C21.427 20.0957 21.3382 19.6707 20.983 19.4158C20.4502 18.9058 19.5621 18.3108 18.9405 17.9709C18.4965 17.7159 17.9637 17.8859 17.7861 18.1409L17.3421 18.6508C17.1645 18.9058 16.7205 18.9058 16.7205 18.9058C13.79 18.1409 12.9908 15.2511 12.9908 15.2511C12.9908 15.2511 12.9908 14.9111 13.2572 14.6561L13.79 14.2312C14.0564 14.0612 14.234 13.5512 13.9676 13.1262C13.79 12.8713 13.5236 12.3613 13.2572 12.1063C12.9908 11.7663 12.4579 11.1714 12.4579 11.1714C12.3232 11.0423 12.1472 10.96 11.958 10.9377ZM16.0988 11.8513C15.6548 11.7664 15.566 12.4463 16.01 12.4463C18.4965 12.6163 19.9174 14.2312 19.8286 16.271C19.7397 16.696 20.4502 16.696 20.4502 16.271C20.539 13.8912 18.9405 11.9363 16.0988 11.8513ZM16.3653 13.4662C15.9212 13.3812 15.9212 14.0612 16.3653 14.0612C17.4309 14.0612 17.9637 14.6561 17.9637 15.676C18.0525 16.101 18.6741 16.101 18.6741 15.676C18.5853 14.3162 17.7861 13.4662 16.3653 13.4662Z" fill="white"/>
</svg>
