<svg width="176" height="70" viewBox="0 0 176 70" fill="none" xmlns="http://www.w3.org/2000/svg">
<path d="M65.8654 29.4158H55.7382L46.2392 40.5683H43.0205V16.4668H34.1494V58.6819H43.0205V47.3796H46.2392L55.7382 58.6819H66.2579L53.3831 43.4875L65.8654 29.4158Z" fill="#4EBD09"/>
<path d="M78.1903 18.1135H69.3193V25.823H78.1903V18.1135Z" fill="#4EBD09"/>
<path d="M78.1903 29.416H69.3193V58.757H78.1903V29.416Z" fill="#4EBD09"/>
<path d="M91.2216 18.1882H82.3506V58.7566H91.2216V18.1882Z" fill="#4EBD09"/>
<path d="M26.8483 41.9904C25.6707 41.3916 24.3361 41.0173 22.6875 40.8676C21.1174 40.7179 17.9772 40.6431 16.0146 40.6431H13.581C12.0109 40.6431 10.8333 40.4934 10.0482 40.4185C9.57721 40.3437 9.26319 40.194 9.02767 40.1191C8.79216 39.9694 8.63515 39.8946 8.55664 39.7449C8.32113 39.4455 8.24263 38.9215 8.24263 38.2479V38.0982C8.24263 37.4245 8.39964 36.9006 8.55664 36.6012C8.63515 36.5264 8.79216 36.3767 9.02767 36.227C9.26319 36.0773 9.65571 36.0024 10.0482 35.9276C10.8333 35.7779 12.0109 35.703 13.581 35.703H27.8688V28.9666H13.1884C11.2258 28.9666 9.4987 29.0414 7.92861 29.1911C6.35851 29.3408 4.94542 29.715 3.76785 30.3138C2.59028 30.9126 1.64822 31.8857 1.02018 33.1581C0.392144 34.4306 0.078125 36.1521 0.078125 38.173C0.078125 40.2688 0.392144 41.9155 1.02018 43.188C1.64822 44.4604 2.59028 45.4334 3.76785 46.0322C4.94542 46.631 6.28001 47.0053 7.92861 47.155C9.4987 47.3047 11.3043 47.3795 13.1884 47.3795H14.366H15.6221C17.1922 47.3795 19.7828 47.5292 20.4894 47.6041C20.9604 47.6789 21.2744 47.8286 21.5099 47.9035C21.7455 48.0532 21.9025 48.128 21.981 48.2777C22.2165 48.5771 22.295 49.1011 22.295 49.7747V49.9244C22.295 50.598 22.138 51.122 21.981 51.4214C21.9025 51.4962 21.7455 51.6459 21.5099 51.7956C21.2744 51.9453 20.8819 52.0202 20.4894 52.095C19.7043 52.2447 18.5268 52.3196 16.9567 52.3196L1.72673 52.3944V59.1309H17.4277C19.3903 59.1309 21.1174 59.056 22.6875 58.9063C24.2576 58.7566 25.6707 58.3824 26.8483 57.7836C28.0258 57.1848 28.9679 56.2118 29.5959 54.9393C30.224 53.6669 30.538 51.9453 30.538 49.9244C30.538 47.8286 30.224 46.1819 29.5959 44.9095C28.9679 43.5622 28.0258 42.5892 26.8483 41.9904Z" fill="#4EBD09"/>
<path d="M107.865 16.4669L99.7006 4.86523L91.5361 16.4669H95.3044V58.682H104.175V16.4669H107.865Z" fill="#4EBD09"/>
<path d="M132.123 44.76C132.123 46.0324 132.045 46.9306 131.888 47.8288C131.731 48.8019 131.417 49.5504 131.024 50.0743C130.553 50.6731 129.925 51.0473 129.062 51.4216C128.198 51.721 126.942 51.8707 125.372 51.8707C123.959 51.8707 122.781 51.7958 121.918 51.6461C121.054 51.4964 120.505 51.197 120.191 50.8228C119.877 50.4485 119.563 49.7749 119.406 48.8767C119.327 48.2031 119.249 47.3049 119.249 46.3318V11.6017H122.938L114.774 0L106.609 11.6017H110.299V46.3318V47.23C110.299 49.1013 110.456 50.7479 110.692 52.1701C111.006 53.6671 111.555 54.9395 112.34 55.9874C113.204 57.0353 114.381 57.8586 115.873 58.3826C117.443 58.9065 119.406 59.1311 121.839 59.1311C123.723 59.1311 125.372 58.9814 126.785 58.682C128.198 58.3826 129.376 57.8586 130.396 57.185C131.181 56.6611 131.809 55.9874 132.437 55.2389L132.673 58.682H140.995V30.4637H132.123V44.76Z" fill="#FA2702"/>
<path d="M175.302 36.6015C174.987 35.329 174.516 34.2063 173.731 33.3081C172.946 32.4099 171.847 31.7363 170.356 31.2872C168.864 30.8381 166.98 30.6135 164.625 30.6135H145.077V70.0592H154.027V59.1312H164.546C166.98 59.1312 168.943 58.9066 170.434 58.3827C171.926 57.8587 173.025 57.1102 173.81 56.212C174.595 55.239 175.144 54.1911 175.38 52.8438C175.616 51.5714 175.773 42.5894 175.773 41.0925C175.773 39.3709 175.616 37.8739 175.302 36.6015ZM166.666 50.1492C166.587 50.748 166.273 51.1971 165.959 51.4965C165.567 51.7959 165.017 52.0205 164.232 52.1702C163.447 52.3199 162.348 52.3199 160.935 52.3199H154.027V37.35H161.014C162.348 37.35 163.447 37.4248 164.232 37.5745C165.017 37.7242 165.567 37.9488 165.959 38.2482C166.352 38.5476 166.587 38.9967 166.666 39.5955C166.744 40.1943 166.823 40.9428 166.823 41.8409C166.823 42.6643 166.823 49.5504 166.666 50.1492Z" fill="#FA2702"/>
</svg>
