<svg width="21" height="18" viewBox="0 0 21 18" fill="none" xmlns="http://www.w3.org/2000/svg">
<path d="M8.02013 16.4778C7.42251 16.4778 7.52978 16.2447 7.31525 15.6698L5.56836 9.82764L16.4175 2.95996L17.6893 3.30179L16.632 6.22289L8.02013 16.4778Z" fill="#C8DAEA"/>
<path d="M8.01953 16.4779C8.47924 16.4779 8.67845 16.2603 8.93895 16.0117C9.33736 15.6233 14.4554 10.5735 14.4554 10.5735L11.3141 9.79663L8.40262 11.6612L8.01953 16.3225V16.4779Z" fill="#A9C9DD"/>
<path d="M8.32631 11.7233L15.7429 17.2703C16.5857 17.7364 17.1987 17.5033 17.4132 16.4779L20.4319 2.05882C20.7384 0.800262 19.9569 0.240904 19.1448 0.61381L1.43069 7.54365C0.22013 8.04085 0.235453 8.72451 1.21616 9.01973L5.76727 10.4647L16.2946 3.7369C16.7849 3.42614 17.2446 3.59706 16.8769 3.93889L8.32631 11.7233Z" fill="url(#paint0_linear_601_1347)"/>
<defs>
<linearGradient id="paint0_linear_601_1347" x1="12.7688" y1="8.51553" x2="16.6766" y2="14.6819" gradientUnits="userSpaceOnUse">
<stop stop-color="#EFF7FC"/>
<stop offset="1" stop-color="white"/>
</linearGradient>
</defs>
</svg>
