<svg width="21" height="20" viewBox="0 0 21 20" fill="none" xmlns="http://www.w3.org/2000/svg">
<path d="M10.26 0C8.67817 0 4.76531 0.159362 2.68401 2.07171C1.18546 3.42629 0.602698 5.49801 0.519446 7.96813C0.352941 11.8725 1.26872 14.3426 2.76726 15.6175C3.10027 15.8566 3.93279 16.494 5.51458 16.9721V18.9641C5.51458 18.9641 5.51458 19.761 6.0141 19.9203C6.09735 19.9203 6.1806 20 6.26385 20C6.76337 20 7.17963 19.4422 7.7624 18.8845C8.26191 18.3267 8.67817 17.9283 8.92793 17.5299H10.7595C12.3413 17.5299 16.2541 17.3705 18.3354 15.4582C19.834 14.0239 20.4167 11.9522 20.4167 9.32271C20.5 8.9243 20.5 8.44621 20.5 7.96813C20.4167 5.01992 19.501 3.02789 18.2522 1.91235C17.7527 1.51394 15.5881 0 10.926 0H10.26ZM10.0935 1.51394H10.8427C15.2551 1.51394 16.9202 2.86853 17.0867 3.02789C18.0857 3.8247 18.6684 5.57769 18.7517 7.88845V8.20717C18.835 8.68526 18.835 9.08366 18.835 9.32271C18.7517 11.7131 18.2522 13.3068 17.2532 14.3426C15.5049 15.8566 11.8418 15.9363 10.8427 15.9363H9.26094L7.9289 17.3705L7.09638 18.247L6.92987 18.4861C6.76337 18.6454 6.51361 18.9641 6.34711 19.0438V15.4582C4.68206 15.0598 4.01604 14.502 3.84954 14.3426C2.68401 13.3865 2.01799 11.0757 2.18449 7.96813V7.17131C2.351 5.25896 2.85051 3.98406 3.68303 3.10757C5.43133 1.59363 9.09443 1.51394 10.0935 1.51394ZM10.0102 3.26693C9.59395 3.26693 9.59395 3.8247 10.0102 3.8247C13.0905 3.8247 15.7546 5.81673 15.7546 9.56175C15.7546 9.96016 16.3374 9.96016 16.3374 9.56175C16.3374 5.49801 13.5068 3.18725 10.0102 3.26693ZM6.71092 4.00398C6.52229 3.98235 6.33229 4.0321 6.18144 4.14263C5.34891 4.54104 4.51556 5.33944 4.76531 6.21594C4.76531 6.21594 4.93182 6.93227 5.84759 8.44621C6.34711 9.16335 6.76337 9.8008 7.17963 10.2789C7.59589 10.8367 8.26191 11.4741 8.92793 11.9522C10.26 12.988 12.3413 14.0239 13.257 14.2629C14.0896 14.502 15.0053 13.7052 15.4216 12.9084C15.5881 12.5896 15.5049 12.1912 15.1719 11.9522C14.6723 11.4741 13.8398 10.9163 13.257 10.5976C12.8408 10.3586 12.3413 10.5179 12.1748 10.757L11.7585 11.2351C11.592 11.4741 11.1757 11.4741 11.1757 11.4741C8.42841 10.757 7.67914 8.04781 7.67914 8.04781C7.67914 8.04781 7.67914 7.72908 7.9289 7.49004L8.42842 7.09163C8.67817 6.93227 8.84468 6.45418 8.59492 6.05578C8.42841 5.81673 8.17866 5.33864 7.9289 5.0996C7.67914 4.78088 7.17963 4.22311 7.17963 4.22311C7.05332 4.10205 6.88833 4.02492 6.71092 4.00398ZM10.593 4.86056C10.1767 4.78088 10.0935 5.41833 10.5097 5.41833C12.8408 5.57769 14.1728 7.09163 14.0896 9.00398C14.0063 9.40239 14.6723 9.40239 14.6723 9.00398C14.7556 6.77291 13.257 4.94024 10.593 4.86056ZM10.8427 6.3745C10.4265 6.29482 10.4265 6.93227 10.8427 6.93227C11.8418 6.93227 12.3413 7.49004 12.3413 8.44621C12.4245 8.84462 13.0073 8.84462 13.0073 8.44621C12.924 7.17131 12.1748 6.3745 10.8427 6.3745Z" fill="white"/>
</svg>
